<svg xmlns="http://www.w3.org/2000/svg" width="10" height="10" viewBox="0 0 10 10">
  <g fill="#00AEEE" stroke="#00AEEE" stroke-width=".2" transform="matrix(-1 0 0 1 9 1)">
    <path d="M8.15664648,3.48218182 C8.40631936,3.48218182 8.6,3.71787475 8.6,4 C8.6,4.28213903 8.40632421,4.51781818 8.15664648,4.51781818 L0.343353516,4.51781818 C0.0936875357,4.51781818 -0.1,4.28213261 -0.1,4 C-0.1,3.71788117 0.0936923909,3.48218182 0.343353516,3.48218182 L8.15664648,3.48218182 Z"/>
    <path d="M1.15014863,3.99999956 L4.34941775,7.19924892 C4.5516419,7.40147306 4.5516419,7.72933502 4.3494265,7.93155041 C4.25106985,8.02993142 4.11962244,8.08323232 3.98325253,8.08323232 C3.84688261,8.08323232 3.7154352,8.02993142 3.6170873,7.93155916 L0.0516731603,4.36614502 C-0.150550986,4.16392088 -0.150550986,3.83605892 0.0516731603,3.63383478 L3.61709168,0.0684162576 C3.81931482,-0.13378185 4.14717002,-0.13378185 4.34939755,0.068420635 C4.55162169,0.270644781 4.55162169,0.598506734 4.34939777,0.800730662 L1.15014863,3.99999956 Z"/>
  </g>
</svg>
